<?xml version="1.0" encoding="utf-8"?>
<!-- Generator: Adobe Illustrator 22.0.0, SVG Export Plug-In . SVG Version: 6.00 Build 0)  -->
<svg version="1.1" id="_x31_f91d" xmlns="http://www.w3.org/2000/svg" xmlns:xlink="http://www.w3.org/1999/xlink" x="0px" y="0px"
	 viewBox="0 0 36 36" enable-background="new 0 0 36 36" xml:space="preserve">
<g id="XMLID_1_">
	<g>
		<path fill="#00BBAC" d="M14.5299997,28.2700005c-0.7399998-0.4500008-1.54-0.9500008-2.4099998-1.5200005
			c-0.0100002-0.0100002-0.0199995-0.0100002-0.0299997-0.0200005c0,0-0.0100002,0-0.0100002-0.0100002
			c-0.2200003-0.1399994-0.4200001-0.2799988-0.6199999-0.4200001c-0.8599997-0.6199989-1.5500002-1.2599983-2.1199999-1.8699989
			C8.9200001,23.9599991,8.5699997,23.5,8.2700005,23.0599995c1.1499996,1.0699997,2.5699997,2.2800007,4.1999998,3.3900013
			c0.3999996,0.2699986,0.8000002,0.5299988,1.2199993,0.7799988c1.7700005,1.0699997,3.1099997,1.8000011,4.1600008,2.3199997
			c1.6999989,0.8400002,2.6000004,1.1200008,3.25,1.3800011c0.6199989,0.2399998,1.3699989-0.3999996,1.5200005-1.1200008
			C22.7099991,30.8199997,21.5699997,32,20.0699997,31.25C19.6599998,31.0499992,18.9699993,30.7199993,18,30.2199993h-0.0100002
			c-0.1900005-0.0999985-0.3899994-0.1999989-0.6000004-0.3199997c-0.6199989-0.3400002-1.3499985-0.7399998-2.1599998-1.2099991
			v-0.0100002c0,0-0.0099993,0-0.0199995-0.0100002C14.9899998,28.5400009,14.7600002,28.4099998,14.5299997,28.2700005z"/>
		<path fill="#2EFFEC" d="M22.6200008,29.8099995c-0.1500015,0.7200012-0.9000015,1.3600006-1.5200005,1.1200008
			c-0.6499996-0.2600002-1.5500011-0.5400009-3.25-1.3800011c-1.0500011-0.5199986-2.3900003-1.25-4.1600008-2.3199997
			c-0.4199991-0.25-0.8199997-0.5100002-1.2199993-0.7799988c-1.6300001-1.1100006-3.0500002-2.3200016-4.1999998-3.3900013
			c-0.0100002-0.0100002-0.0100002-0.0199986-0.0100002-0.0199986c-1.6800003-1.5600014-2.8000002-2.8400002-3.23-3.0900002
			C4.2399998,19.4699993,2.6600001,18.5200005,1.79,18C0.92,17.4699993,0.79,16.2099991,1.29,15.3900003
			c0.49-0.8100004,2.79-4.6300001,3.3099999-5.5C4.9499998,9.3199997,5.54,9.0200005,6.1500001,9.0200005
			c0.3199997,0,0.6500001,0.0799999,0.9400001,0.2599993c0,0,1.29,0.7400007,2.0299997,1.1800003
			c1.6500006,1,4.4400005-0.2300005,6.8900003-1.4800005c0.5300007,0.6800003,1.1800003,1.3600006,1.8199997,1.9000006
			c0.0799999,0.0799999,0.1700001,0.1499996,0.25,0.21c0.1399994,0.1199999,0.2800007,0.2200003,0.4099998,0.3199997
			c-1.039999,0.7600002-0.8899994,1.8400002-0.2999992,2.4899998C18.25,13.9700003,18.3199997,14.04,18.3999996,14.1000004
			c0.4899998,0.3899994,1.5900002,1.1899996,2.9899998,2.1099987l-1.4099998,2.4300003l-0.3299999,0.5
			c1.7800007,1.210001,4.6300011,2.9300003,6.8299999,4.0100002c0.1900005,0.1000004,0.3800011,0.1900005,0.5600014,0.2700005
			c0.2699986,0.1299992,0.4599991,0.2999992,0.5799999,0.4899998c0.0899982,0.1399994,0.1499996,0.2900009,0.1799984,0.4500008
			c0,0.0100002,0,0.0199986,0.0100002,0.039999c0.1300011,0.9300003-0.7699986,2.0200005-1.7799988,1.5599995
			c-3.8800011-1.75-7.8299999-4.2399998-7.8299999-4.2399998l-0.3400002,0.5700016
			c0.0799999,0.0599995,0.1599998,0.1199989,0.25,0.1799984l-1.7600002,2.25l-0.3199997,0.5799999
			c1.0299988,0.7700005,3.0299988,1.9400005,5.8599987,3.210001c0.2000008,0.0900002,0.3500004,0.1900005,0.460001,0.3199997
			C22.6299992,29.1100006,22.7000008,29.4699993,22.6200008,29.8099995z"/>
		<path fill="#00BBAC" d="M8.8599997,25.7199993c0.1600008,0.9400005,1.2200003,1.7300014,1.9800005,1.0900002
			c0.21-0.1700001,0.4099998-0.3400002,0.6199999-0.5100002c0.1999998,0.1400013,0.3999996,0.2800007,0.6199999,0.4200001
			c-0.2299995,0.1900005-0.46,0.3700008-0.6800003,0.5600014c-0.9899998,0.8199997-2.5499992-0.4099998-2.5499992-1.5600014
			H8.8599997z"/>
		<path fill="#2BCBBF" d="M9.3400002,24.4300003c0.5699997,0.6100006,1.2600002,1.25,2.1199999,1.8699989
			c-0.21,0.1700001-0.4099998,0.3400002-0.6199999,0.5100002c-0.7600002,0.6400013-1.8199997-0.1499996-1.9800005-1.0900002
			c-0.0699997-0.4299984,0.0500002-0.8899994,0.46-1.2699986L9.3400002,24.4300003z"/>
		<path fill="#2BCBBF" d="M16.3400002,30.75c-0.4400005,0.3400002-1.0799999,0.2000008-1.4800005-0.1800003
			c-0.0099993-0.0100002-0.0099993-0.0100002-0.0099993-0.0200005C14.4499998,30.1599998,14.3299999,29.5100002,15,28.8999996
			c0.0699997-0.0699997,0.1499996-0.1399994,0.2299995-0.2099991c0.8100014,0.4699993,1.5400009,0.8699989,2.1599998,1.2099991
			C16.9500008,30.25,16.6000004,30.5499992,16.3400002,30.75z"/>
		<path fill="#00BBAC" d="M13.8999996,29.7600002C13,30.5599995,11.7600002,29.75,11.4499998,28.7700005H11.46
			c0.3500004,0.6599998,1.1999998,1.0499992,1.9099998,0.4399986c0.3299999-0.2799988,0.7200003-0.5999985,1.1599998-0.9399986
			c0.2300005,0.1399994,0.46,0.2700005,0.6800003,0.3999996C14.71,29.0699997,14.2600002,29.4400005,13.8999996,29.7600002z"/>
		<path fill="#2BCBBF" d="M12.1199999,26.75c0.8699999,0.5699997,1.6700001,1.0699997,2.4099998,1.5200005
			c-0.4399996,0.3400002-0.8299999,0.6599998-1.1599998,0.9399986c-0.71,0.6100006-1.5599995,0.2200012-1.9099998-0.4399986
			c-0.2799997-0.5100002-0.2700005-1.1900005,0.3000002-1.7000008C11.8699999,26.9599991,11.9899998,26.8600006,12.1199999,26.75z"
			/>
		<path fill="#2BCBBF" d="M28.2600002,21.7299995c0.3699989-0.6499996,0.3299999-1.5299988-0.6700001-1.9899998
			c-2.1300011-0.9699993-4.4099998-2.3500004-6.2000008-3.5300007c-1.3999996-0.9199991-2.5-1.7199993-2.9899998-2.1099987
			C18.3199997,14.04,18.25,13.9700003,18.1900005,13.8999996c0.5699997-0.3899994,1.0199986-0.7299995,1.2999992-1.0099993
			c0.6800003,0.79,1.7199993,1.6899996,2.6499996,2.1399994c1.0799999,0.5200005,2.3100014,0.79,2.8700008,0.7600002
			c0.5699997-0.0199995,0.3799992-0.6199999,0.039999-0.6199999s-1.4399986-0.1499996-2.6899986-0.7300005
			c-1.0600014-0.4899998-1.8900013-1.3799992-2.5799999-2.1199999c-0.0200005-0.1300001-0.1300011-0.2299995-0.3299999-0.3299999
			c-0.1500015-0.0699997-0.3200016-0.1599998-0.5-0.2699995c0,0-0.0100002,0-0.0100002-0.0100002
			c-0.0900002-0.0600004-0.1800003-0.1199999-0.2800007-0.1800003C18.6100006,11.5,18.5499992,11.4499998,18.4899998,11.4099998
			c-0.1299992-0.0999994-0.2700005-0.1999998-0.4099998-0.3199997c-0.0799999-0.0699997-0.1700001-0.1400003-0.25-0.21
			c-0.6399994-0.54-1.289999-1.2200003-1.8199997-1.9000006C15.96,8.9099998,15.8999996,8.8299999,15.8500004,8.7600002
			C15.75,8.6300001,15.6599998,8.5,15.5699997,8.3599997c-0.1199999-0.1899996-0.2299995-0.3899999-0.3299999-0.5799994
			c-1.0500002-2.1000004,0.4400005-3.77,2.1100006-2.1000004c0.1299992,0.1400003,0.2799988,0.29,0.4499989,0.4500003
			C17.9599991,6.29,18.1299992,6.4499998,18.3199997,6.6199999C18.6100006,6.8800001,18.9200001,7.1500001,19.25,7.4000001
			c0.1100006,0.0899997,0.2299995,0.1700001,0.3400002,0.25c0.0200005,0.02,0.0300007,0.0299997,0.0499992,0.04
			c0.0100002,0,0.0100002,0.0099998,0.0200005,0.0099998c0.0300007,0.02,0.0599995,0.04,0.0900002,0.0600004
			c0.4200001,0.29,0.8700008,0.5500002,1.3299999,0.7399998c0.1200008,0.0600004,0.25,0.1000004,0.3799992,0.1400003
			c0.3800011,0.1300001,0.7600002,0.1999998,1.1500015,0.1999998c0.0499992,0,0.0900002,0,0.1299992,0
			c0.0400009,0,0.0799999,0,0.1200008,0c0.1199989,0.0100002,0.2399998,0.0100002,0.3499985,0.0199995
			c0.2300014,0.0100002,0.4400005,0.0300007,0.6300011,0.0600004c0.1199989,0.0100002,0.2299995,0.0299997,0.3400002,0.0500002
			C24.25,8.9799995,24.3099995,9,24.3700008,9.0100002c1.3899994,0.3000002,2.0099983,0.8800001,3.5099983,0.8800001
			c1.0500011,0,2.1000004-1.0500002,2.1000004-1.0500002c0.210001-0.1000004,0.4099998-0.1500006,0.6000004-0.1500006
			c0.6200008,0,1.1599998,0.5,1.5100002,1.2000008c0.4399986,0.9099998,2.5299988,5.0099993,2.9500008,5.8699999
			c0.4199982,0.8500004,0.1899986,2.1000004-0.7200012,2.5499992c-0.9099998,0.4500008-2.2299995,1.0500011-3.0900002,2.5100002
			c-0.3199997,0.5500011-1.3299999,1.7000008-3.6099987,3.0900002C27.5,23.7199993,27.3099995,23.5499992,27.0400009,23.4200001
			c-0.1800003-0.0799999-0.3700008-0.1700001-0.5600014-0.2700005c0.7200012,0.0900002,1.5400009-0.6299992,1.7900009-1.4200001
			H28.2600002z"/>
		<path fill="#00BBAC" d="M19.7800007,12.3199997c0.6899986,0.7400007,1.5199986,1.6300001,2.5799999,2.1199999
			c1.25,0.5800009,2.3499985,0.7300005,2.6899986,0.7300005s0.5300007,0.6000004-0.039999,0.6199999
			c-0.5599995,0.0299997-1.7900009-0.2399998-2.8700008-0.7600002c-0.9300003-0.4499998-1.9699993-1.3499994-2.6499996-2.1399994
			C19.7000008,12.6700001,19.8099995,12.4799995,19.7800007,12.3199997z"/>
		<path fill="#00BBAC" d="M26.6900005,22.4599991c0.6000004,0.25,1.25-0.1499996,1.5699997-0.7299995h0.0100002
			c-0.25,0.7900009-1.0699997,1.5100002-1.7900009,1.4200001c-2.1999989-1.0799999-5.0499992-2.7999992-6.8299999-4.0100002
			l0.3299999-0.5C19.9799995,18.6399994,23.6000004,21.1900005,26.6900005,22.4599991z"/>
		<path fill="#2EFFEC" d="M25.2600002,27.2800007c-0.0599995,0.8499985-0.9200001,1.6999989-1.9200001,1.289999
			c-4.1499996-1.7299995-6.9899998-3.8500004-6.9899998-3.8500004l1.7600002-2.25
			c1.3499985,0.9400005,4.1199989,2.5900002,6.3999996,3.6100006c0.1999989,0.0900002,0.3500004,0.2000008,0.4599991,0.3299999
			c0,0,0.0100002,0,0.0100002,0.0100002c0.2200012,0.25,0.3000011,0.5499992,0.2800007,0.8500004V27.2800007z"/>
		<path fill="#00BBAC" d="M27.8099995,24.3999996c0.3900013,1.1000004-0.8999996,2.8800011-2.0499992,2.3700008
			c-0.2800007-0.1300011-0.5300007-0.25-0.7800007-0.3500004c0-0.0100002-0.0100002-0.0100002-0.0100002-0.0100002
			c-0.1099987-0.1299992-0.2600002-0.2399998-0.4599991-0.3299999c-2.2800007-1.0200005-5.0500011-2.6700001-6.3999996-3.6100006
			c-0.0900002-0.0599995-0.1700001-0.1199989-0.25-0.1799984l0.3400002-0.5700016c0,0,3.9499989,2.4899998,7.8299999,4.2399998
			C27.0400009,26.4200001,27.9400005,25.3299999,27.8099995,24.3999996z"/>
		<path fill="#00BBAC" d="M16.3500004,24.7199993c0,0,2.8400002,2.1200008,6.9899998,3.8500004
			c1,0.4099998,1.8600006-0.4400005,1.9200001-1.289999c0.1199989,1.0699997-0.8500004,2.3899994-1.9400005,1.9399986
			c-0.3500004-0.1399994-0.6700001-0.2799988-0.9599991-0.3999996l-0.0100002,0.0100002
			c-0.1100006-0.1299992-0.2600002-0.2299995-0.460001-0.3199997c-2.8299999-1.2700005-4.8299999-2.4400005-5.8599987-3.210001
			L16.3500004,24.7199993z"/>
		<path fill="#2EFFEC" d="M27.5900002,19.7399998c1,0.460001,1.039999,1.3400002,0.6700001,1.9899998
			c-0.3199997,0.5799999-0.9699993,0.9799995-1.5699997,0.7299995c-3.0900002-1.2699986-6.710001-3.8199997-6.710001-3.8199997
			l1.4099998-2.4300003C23.1800003,17.3899994,25.4599991,18.7700005,27.5900002,19.7399998z"/>
		<path fill="#00BBAC" d="M16.3400002,30.75c0.2600002-0.2000008,0.6100006-0.5,1.0499992-0.8500004
			c0.210001,0.1200008,0.4099998,0.2200012,0.6000004,0.3199997c-0.289999,0.2800007-0.5900002,0.5600014-0.9499989,0.8500004
			c-0.8000011,0.6700001-2.0100012,0.2399998-2.1800013-0.5C15.2600002,30.9500008,15.8999996,31.0900002,16.3400002,30.75z"/>
		<path fill="#2EFFEC" d="M19.75,7.7600002c-0.0300007-0.0200005-0.0499992-0.0400004-0.0799999-0.0600004
			c0.5599995-0.3499999,1.1599998-0.9299998,1.8899994-2.02C22.2900009,4.5900002,23.6599998,5.2399998,23.6599998,6.73
			c0,0.5300002-0.2600002,1.3200002-0.9200001,2.1100001c-0.039999,0-0.0799999,0-0.1299992,0
			c-0.3900013,0-0.7700005-0.0699997-1.1500015-0.1999998c-0.1299992-0.04-0.2599983-0.0799999-0.3799992-0.1400003
			C20.6200008,8.3100004,20.1700001,8.0500002,19.75,7.7600002z"/>
		<path fill="#2EFFEC" d="M23.8400002,8.9200001c0.1199989,0.0100002,0.2299995,0.0299997,0.3400002,0.0500002
			C24.0699997,8.9499998,23.9599991,8.9300003,23.8400002,8.9200001z"/>
		<path fill="#FFCC4D" d="M23.2099991,8.8599997c-0.1099987-0.0099993-0.2299995-0.0099993-0.3499985-0.0199995
			C22.9799995,8.8500004,23.1000004,8.8500004,23.2099991,8.8599997z"/>
		<path fill="#2EFFEC" d="M21.0799999,8.5c0.1200008,0.0600004,0.25,0.1000004,0.3799992,0.1400003
			C21.3299999,8.6000004,21.2000008,8.5600004,21.0799999,8.5z"/>
		<path fill="#2BCBBF" d="M19.75,7.7600002c-0.0300007-0.0200005-0.0599995-0.0400004-0.0900002-0.0600004h0.0100002
			C19.7000008,7.7199998,19.7199993,7.7399998,19.75,7.7600002z"/>
		<path fill="#2BCBBF" d="M19.25,7.4000001c0.1100006,0.0899997,0.2199993,0.1700001,0.3400002,0.25
			C19.4799995,7.5700002,19.3600006,7.4899998,19.25,7.4000001z"/>
		<path fill="#2BCBBF" d="M18.6599998,11.5299997c0.1000004,0.0600004,0.1900005,0.1199999,0.2800007,0.1800003
			C18.8500004,11.6599998,18.7600002,11.6000004,18.6599998,11.5299997z"/>
		<path fill="#2BCBBF" d="M17.8299999,10.8800001c0.0799999,0.0699997,0.1700001,0.1400003,0.25,0.21
			C18,11.0299997,17.9099998,10.96,17.8299999,10.8800001z"/>
		<path fill="#2BCBBF" d="M18.3199997,6.6199999C18.1299992,6.4499998,17.9599991,6.29,17.7999992,6.1300001
			C17.9599991,6.2800002,18.1299992,6.4499998,18.3199997,6.6199999z"/>
		<path fill="#2BCBBF" d="M15.5699997,8.3599997C15.6599998,8.5,15.75,8.6300001,15.8500004,8.7600002
			C15.75,8.6199999,15.6599998,8.4899998,15.5699997,8.3599997z"/>
	</g>
	<g>
	</g>
</g>
</svg>
